<svg xmlns="http://www.w3.org/2000/svg" style="isolation:isolate" viewBox="0 0 64 64"><defs><clipPath id="a"><path d="M0 0h64v64H0z"/></clipPath></defs><g clip-path="url(#a)"><mask id="b" width="64" height="64"><path fill="#fff" d="M0 0h64v64H0z"/><path d="M53.79 33.1c.054-.128.054-.272 0-.4-.96-1.81-8.5-15.53-21.79-15.86-13.29-.33-21 13.77-22.08 15.81-.086.149-.086.331 0 .48C11.1 35.06 19.35 48.05 29.68 49c11.39 1 20.63-7 24.11-15.9Z"/></mask><path fill="none" d="M53.79 33.1c.054-.128.054-.272 0-.4-.96-1.81-8.5-15.53-21.79-15.86-13.29-.33-21 13.77-22.08 15.81-.086.149-.086.331 0 .48C11.1 35.06 19.35 48.05 29.68 49c11.39 1 20.63-7 24.11-15.9Z"/><path fill="none" stroke="#000" stroke-linecap="round" stroke-linejoin="round" stroke-width="7" d="M53.79 33.1c.054-.128.054-.272 0-.4-.96-1.81-8.5-15.53-21.79-15.86-13.29-.33-21 13.77-22.08 15.81-.086.149-.086.331 0 .48C11.1 35.06 19.35 48.05 29.68 49c11.39 1 20.63-7 24.11-15.9Z" mask="url(#b)" vector-effect="non-scaling-stroke"/><circle cx="31.7" cy="32.76" r="6.91" fill="none" stroke="#000" stroke-linecap="round" stroke-linejoin="round" stroke-width="3.5" vector-effect="non-scaling-stroke"/></g></svg>