<svg xmlns="http://www.w3.org/2000/svg" style="isolation:isolate" viewBox="0 0 24 24"><defs><clipPath id="a"><path d="M0 0h24v24H0z"/></clipPath></defs><g clip-path="url(#a)"><path d="M12 0c6.626 0 12 5.373 12 12s-5.374 12-12 12S0 18.627 0 12 5.374 0 12 0Z" fill="#FFE67E"/><radialGradient id="b" fx=".37790693" fy=".41302482" cx=".37790693" cy=".41302482" r="1" gradientTransform="scale(24)" gradientUnits="userSpaceOnUse"><stop offset="0%" stop-opacity="0" stop-color="#ffc42b"/><stop offset="100%" stop-color="#ffaa2b"/></radialGradient><path d="M12 0c6.626 0 12 5.373 12 12s-5.374 12-12 12S0 18.627 0 12 5.374 0 12 0Z" fill="url(#b)" fill-opacity=".6"/><linearGradient id="c" x1=".52172" y1=".30436" x2=".36956" y2="1.17392" gradientTransform="scale(24)" gradientUnits="userSpaceOnUse"><stop offset="0%" stop-opacity="0" stop-color="#ffd52b"/><stop offset="56.2%" stop-opacity=".562" stop-color="#ff9913"/><stop offset="73.4%" stop-opacity=".734" stop-color="#ff870b"/><stop offset="100%" stop-color="#ff6b00"/></linearGradient><path d="M12 0c6.626 0 12 5.373 12 12s-5.374 12-12 12S0 18.627 0 12 5.374 0 12 0Z" fill="url(#c)" fill-opacity=".3"/><path d="M9.088 10.11c-.195.002-.27-.1-.409-.465-.078-.178-.177-.434-.42-.703-.302-.349-.738-.553-1.2-.561-.462.007-.898.212-1.2.561-.243.27-.342.525-.42.703-.051.128-.112.253-.182.372-.061.084-.135.105-.227.1-.093-.005-.18-.02-.257-.093-.046-.046-.082-.1-.107-.16-.024-.08-.047-.2-.048-.344-.005-.28.067-.713.4-1.225.459-.678 1.222-1.086 2.04-1.091.819.004 1.583.413 2.042 1.091.334.512.406.945.4 1.225-.005.284-.077.431-.154.507-.077.076-.164.084-.257.084l-.001-.001Zm9.882 0c-.194.002-.27-.1-.409-.465-.078-.178-.177-.434-.42-.703-.302-.349-.738-.553-1.2-.561-.462.007-.898.212-1.2.561-.243.27-.342.525-.42.703-.075.179-.12.265-.182.372-.06.084-.135.105-.227.1-.093-.005-.18-.02-.257-.093-.046-.046-.082-.1-.106-.16-.025-.08-.048-.2-.049-.344-.005-.28.067-.713.4-1.225.459-.678 1.222-1.086 2.041-1.091.818.005 1.581.413 2.04 1.091.334.512.406.945.401 1.225-.006.284-.077.431-.154.507-.077.076-.165.084-.258.084v-.001Z" fill="#1C1B1A"/><path d="M6 11s-.54 4.222-1.555 5.236c-.489.488-1.152.763-1.843.764-.469 0-.938-.125-1.347-.382-.639-.385-1.081-1.027-1.214-1.761-.132-.734.057-1.49.521-2.074.06-.081.13-.158.202-.229C1.778 11.54 6 11 6 11Z" fill="#45D4FF"/><radialGradient id="d" fx=".50000154" fy=".5" cx=".50000154" cy=".5" r="1" gradientTransform="matrix(6 0 0 6 0 11)" gradientUnits="userSpaceOnUse"><stop offset="0%" stop-opacity="0" stop-color="#45d4ff"/><stop offset="100%" stop-color="#2ca9ce"/></radialGradient><path d="M6 11s-.54 4.222-1.555 5.236c-.489.488-1.152.763-1.843.764-.469 0-.938-.125-1.347-.382-.639-.385-1.081-1.027-1.214-1.761-.132-.734.057-1.49.521-2.074.06-.081.13-.158.202-.229C1.778 11.54 6 11 6 11Z" fill="url(#d)"/><path d="M7.22 12.02h10.56c.558 0 .975.543.882 1.135-.042.268-.1.53-.17.787H6.508c-.072-.259-.129-.522-.171-.787-.093-.592.325-1.136.882-1.136l.001.001Z" fill="#FFF"/><path d="M6.509 13.942h11.982c-.357 1.321-1.108 2.502-2.152 3.385-.343-.856-1.13-1.462-2.053-1.462-.732 0-1.38.38-1.786.962-.406-.582-1.053-.962-1.786-.962-.924 0-1.714.606-2.053 1.462-1.045-.883-1.796-2.064-2.152-3.385Z" fill="#1C1B1A"/><path d="M14.286 15.865c.924 0 1.71.606 2.053 1.462-1.062.894-2.393 1.423-3.84 1.423-1.446 0-2.776-.529-3.838-1.423.339-.856 1.13-1.462 2.053-1.462.732 0 1.38.38 1.786.962.406-.582 1.053-.962 1.786-.962Z" fill="#ED464E"/><linearGradient id="e" x1=".5" y1="1.16672444" x2=".5" y2=".33344887" gradientTransform="matrix(7.678 0 0 2.885 8.661 15.865)" gradientUnits="userSpaceOnUse"><stop offset="0%" stop-color="#891319"/><stop offset="100%" stop-opacity="0" stop-color="#ed464e"/></linearGradient><path d="M14.286 15.865c.924 0 1.71.606 2.053 1.462-1.062.894-2.393 1.423-3.84 1.423-1.446 0-2.776-.529-3.838-1.423.339-.856 1.13-1.462 2.053-1.462.732 0 1.38.38 1.786.962.406-.582 1.053-.962 1.786-.962Z" fill="url(#e)"/><path d="M23.409 12.447c.376.473.53 1.086.423 1.681-.108.595-.466 1.116-.984 1.428-.332.208-.712.309-1.092.309-.54 0-1.079-.208-1.496-.619C19.438 14.423 19 11 19 11s3.423.438 4.246 1.261c.057.057.115.119.163.186Z" fill="#45D4FF"/><radialGradient id="f" fx=".49997149" fy=".5" cx=".49997149" cy=".5" r="1" gradientTransform="translate(19 11) scale(4.865)" gradientUnits="userSpaceOnUse"><stop offset="0%" stop-opacity="0" stop-color="#45d4ff"/><stop offset="100%" stop-color="#2ca9ce"/></radialGradient><path d="M23.409 12.447c.376.473.53 1.086.423 1.681-.108.595-.466 1.116-.984 1.428-.332.208-.712.309-1.092.309-.54 0-1.079-.208-1.496-.619C19.438 14.423 19 11 19 11s3.423.438 4.246 1.261c.057.057.115.119.163.186Z" fill="url(#f)"/></g></svg>