<svg xmlns="http://www.w3.org/2000/svg" style="isolation:isolate" viewBox="0 0 24 24"><defs><clipPath id="a"><path d="M0 0h24v24H0z"/></clipPath></defs><g clip-path="url(#a)"><path d="M12 24c6.628 0 12-5.372 12-12S18.628 0 12 0 0 5.372 0 12s5.372 12 12 12Z" fill="#FFE67E"/><radialGradient id="b" fx=".37790693" fy=".41302482" cx=".37790693" cy=".41302482" r="1" gradientTransform="scale(24)" gradientUnits="userSpaceOnUse"><stop offset="0%" stop-opacity="0" stop-color="#ffc42b"/><stop offset="100%" stop-color="#ffaa2b"/></radialGradient><path d="M12 24c6.628 0 12-5.372 12-12S18.628 0 12 0 0 5.372 0 12s5.372 12 12 12Z" fill="url(#b)" fill-opacity=".6"/><linearGradient id="c" x1=".52172" y1=".30436" x2=".36956" y2="1.17392" gradientTransform="scale(24)" gradientUnits="userSpaceOnUse"><stop offset="0%" stop-opacity="0" stop-color="#ffd52b"/><stop offset="56.2%" stop-opacity=".562" stop-color="#ff9913"/><stop offset="73.4%" stop-opacity=".734" stop-color="#ff870b"/><stop offset="100%" stop-color="#ff6b00"/></linearGradient><path d="M12 24c6.628 0 12-5.372 12-12S18.628 0 12 0 0 5.372 0 12s5.372 12 12 12Z" fill="url(#c)" fill-opacity=".3"/><path d="M17.5 10c1.105 0 2-.895 2-2s-.895-2-2-2-2 .895-2 2 .895 2 2 2Zm-1.173 5.616c.002.827-.159 1.645-.476 2.409-.455-.608-1.169-.966-1.928-.966-.788 0-1.48.38-1.923.961-.455-.607-1.17-.963-1.928-.961-.758.002-1.471.362-1.923.971-.317-.765-.479-1.586-.476-2.414 0-2.923 1.938-5.288 4.327-5.288 2.39 0 4.327 2.365 4.327 5.288Z" fill="#1C1B1A"/><path d="M12 18.02c.454-.605 1.166-.961 1.923-.962.788 0 1.486.38 1.928.967-.716 1.711-2.173 2.88-3.851 2.88s-3.135-1.169-3.851-2.875c.452-.609 1.165-.969 1.923-.971.758-.002 1.473.354 1.928.961Z" fill="#ED464E"/><linearGradient id="d" x1=".5" y1="1.16662334" x2=".5" y2=".33324669" gradientTransform="matrix(7.702 0 0 3.847 8.149 17.058)" gradientUnits="userSpaceOnUse"><stop offset="0%" stop-color="#891319"/><stop offset="100%" stop-opacity="0" stop-color="#ed464e"/></linearGradient><path d="M12 18.02c.454-.605 1.166-.961 1.923-.962.788 0 1.486.38 1.928.967-.716 1.711-2.173 2.88-3.851 2.88s-3.135-1.169-3.851-2.875c.452-.609 1.165-.969 1.923-.971.758-.002 1.473.354 1.928.961Z" fill="url(#d)"/><path d="M6.5 10c1.105 0 2-.895 2-2s-.895-2-2-2-2 .895-2 2 .895 2 2 2Z" fill="#1C1B1A"/></g></svg>