<svg xmlns="http://www.w3.org/2000/svg" xmlns:xlink="http://www.w3.org/1999/xlink" style="isolation:isolate" viewBox="0 0 24 24"><defs><path id="reuse-0" fill="none" d="M6 21.002V4.998c0-.53.211-1.039.586-1.414S7.47 2.998 8 2.998h8c.53 0 1.039.211 1.414.586S18 4.468 18 4.998v16h-.007l-5.492-3.176-.501-.289-.5.289-5.5 3.18Z"/></defs><defs><clipPath id="a"><path d="M0 0h24v24H0z"/></clipPath></defs><g clip-path="url(#a)"><clipPath id="b"><path fill="#FFF" d="M0 0h24v24H0V0Z"/></clipPath><g clip-path="url(#b)"><use xlink:href="#reuse-0"/><clipPath id="c"><path fill="#FFF" fill-rule="evenodd" d="M-48-48h96v96h-96v-96ZM6 21.002V4.998c0-.53.211-1.039.586-1.414S7.47 2.998 8 2.998h8c.53 0 1.039.211 1.414.586S18 4.468 18 4.998v16h-.007l-5.492-3.176-.501-.289-.5.289-5.5 3.18Z"/></clipPath><g clip-path="url(#c)"><mask id="d" width="24" height="24"><path fill="#fff" d="M0 0h24v24H0z"/><path d="M6 21.002V4.998c0-.53.211-1.039.586-1.414S7.47 2.998 8 2.998h8c.53 0 1.039.211 1.414.586S18 4.468 18 4.998v16h-.007l-5.492-3.176-.501-.289-.5.289-5.5 3.18Z"/></mask><use xlink:href="#reuse-0"/><path fill="none" stroke="#768787" stroke-width="4" d="M6 21.002V4.998c0-.53.211-1.039.586-1.414S7.47 2.998 8 2.998h8c.53 0 1.039.211 1.414.586S18 4.468 18 4.998v16h-.007l-5.492-3.176-.501-.289-.5.289-5.5 3.18Z" mask="url(#d)" vector-effect="non-scaling-stroke"/></g></g></g></svg>