<svg xmlns="http://www.w3.org/2000/svg" style="isolation:isolate" viewBox="0 0 24 24"><defs><clipPath id="a"><path d="M0 0h24v24H0z"/></clipPath></defs><g clip-path="url(#a)"><path d="M12 0c6.626 0 12 5.373 12 12s-5.374 12-12 12S0 18.627 0 12 5.374 0 12 0Z" fill="#2AA5A0"/><path d="M6.54 9.884H5.482c-.541 0-.982.428-.982.95v7.715c0 .523.44.951.982.951H6.54c.541 0 .982-.428.982-.951v-7.714c0-.523-.44-.951-.982-.951Zm11.132.123h-2.955c-1.017 0-1.4-.37-1.436-1.344 0-.042 0-.089.006-.13l.425-3.176c.014-.097.01-.197-.012-.293-.177-.59-1.741-.828-2.088-.165l-.054.088-3.327 5.126c-.046.064-.083.133-.113.205-.067.189-.101.387-.102.587v6.787c0 .998.826 1.808 1.843 1.808h6.366c1.25 0 2.321-1.41 2.524-2.624l.724-4.78c.192-1.091-.67-2.09-1.8-2.09l-.001.001Z" fill="#FFF"/></g></svg>