<svg xmlns="http://www.w3.org/2000/svg" fill="none" class="cat-not-posts__image" viewBox="0 0 110 110"><path fill="#000" d="M53.892578 15.382812c-.966669.017053-1.929777.052235-2.890625.107422-10.545378.6013-18.627301 2.336491-25.429687 5.458985-7.339186 3.374792-24.4313845 13.248738-24.63671912 32C.81381412 63.581097 5.623876 74.420665 13.1875 80.564453c.022.0176.047859.039947.068359.060547 12.830376 12.963774 36.922521 10.953026 46.6875 9.486328.7084-.1114 1.341874-.133303 2.013672-.158203.3373-.0103.703138-.025881 1.085938-.050781.2288-2.172196.979802-3.79561 2.25-4.816406 2.430194-1.950598 6.122887-1.382583 9.425781-.833985.621898-1.523896.535112-2.932433-.242188-3.894531-.945998-1.168898-2.734607-1.497884-4.908203-.896484-1.802496.510398-4.691518 1.251728-7.382812 1.798828-1.620698.332898-3.89686.74025-5.535156.78125-4.558392.088-10.544004-.330602-15.246094-1.0625-5.37389-.8316-15.001324-3.853036-19.103516-7.361328-6.859586-5.85489-9.138927-11.600841-10.453125-18.423829-.0865-.450198.207905-.886609.658203-.974609.4488-.0924.888563.206958.976563.660156 1.246698 6.479688 3.407051 11.931568 9.898437 17.472656 3.817794 3.266194 13.229054 6.200724 18.277344 6.982422 4.615592.7172 10.483741 1.128069 14.957031 1.042969 1.076498-.0249 2.669414-.2466 4.59961-.625.0293-1.828996-.37839-3.109808-1.242188-3.941406-1.453496-1.399198-4.296125-1.790211-9.228515-1.257813-4.025992.4312-14.559459-1.268657-17.376953-3.126953-.3109-.2068-.448879-.598125-.330079-.953125.1834-.560198.497635-1.02145.802735-1.46875.476698-.705498.890647-1.31617.873047-2.292968-.0338-2.141396-.359838-2.97334-.773438-4.023438-.1745-.4517-.368447-.945986-.560547-1.583984-.0572-.0337-.110256-.073188-.160156-.117188-.2933-.2538-.445312-.643958-.445312-1.160156 0-.4591.372478-.832031.830078-.832031.412098 0 .752912.296353.820312.689453.2054.1012.366136.289292.427734.52539.2083.7788.425974 1.334749.638672 1.873047.4547 1.160098.848519 2.16012.886719 4.603516.0264 1.500396-.631211 2.471655-1.162109 3.251953-.1042.1554-.204969.301161-.292969.443359 2.521194 1.151398 8.772121 2.339129 13.007813 2.548829-.9753-1.258398-1.820429-2.699209-2.486329-4.253907-.0968.0572-.207373.098128-.326171.111328-.7333.0836-1.485843.138607-2.244141.191407-.978298.0734-1.98708.146803-2.955078.283203-.0382.0059-.078535.007812-.115235.007812-.409198 0-.765065-.301797-.822265-.716797-.0645-.454698.252331-.874953.707031-.939453 1.022298-.1423 2.061255-.217715 3.064453-.291015.712798-.0528 1.416171-.106288 2.105469-.179688-.1657-.495698-.313353-1.000866-.439453-1.509766-.6263-.014698-1.229807-.080443-1.816407-.152343-1.017896-.1246-1.978876-.244838-2.921874-.023438-.4488.1027-.893947-.175647-.998047-.623047-.1027-.447298.175295-.893948.621093-.998046 1.231998-.286 2.387809-.14516 3.503907-.00586.439998.0543.865264.096647 1.289062.123047-.510398-3.396794-.072568-6.951645 1.798828-10.085937 2.164796-3.629994 5.587997-7.262297 8.650391-10.337891.621898-.712798 1.533394-2.083971 2.58789-3.667969 3.071193-4.61119 6.884935-10.356492 10.236329-9.871094.044.0059.090212.01665.132812.03125 2.525596.7994 2.990077 3.772983 3.484375 6.921875.2434 1.556098.493549 3.159421.998047 4.511719 3.081494-.1027 6.560281.911893 9.921875 1.900391 2.271896.668798 4.426363 1.300475 6.318359 1.546875.5353-.4752 1.355899-1.372402 2.216797-2.3125 3.074094-3.354294 5.39237-5.734375 7.134766-5.734375H97.625c3.4308.0807 3.91648 4.705837 4.27148 8.082031.064.614598.12422 1.184975.19922 1.671875.323 2.330596.38346 4.670045.43946 6.931641.024.931298.04784 1.86603.08984 2.798828.02.458998-.33492.846587-.79492.867187-.486.041-.84524-.335369-.86524-.792969-.043-.944498-.06779-1.88848-.09179-2.830078-.058-2.216094-.11583-4.508432-.42383-6.736328-.073-.498598-.13808-1.097383-.20508-1.738281-.292199-2.761694-.69046-6.544344-2.660156-6.589844h-.013672c-1.142496 0-4.2382 3.376717-5.904296 5.195313-1.151398 1.255496-2.059249 2.24945-2.685547 2.71875-.1686.1276-.378644.184109-.589844.162109-2.122296-.2258-4.468629-.915533-6.953125-1.644531-3.439394-1.011998-6.999334-2.053534-9.923828-1.802734-.3476.029298-.684878-.163629-.830078-.486329-.7451-1.651396-1.048397-3.588041-1.341797-5.460937-.4048-2.587196-.786793-5.035466-2.275391-5.572266-2.307094-.2259-6.212432 5.641152-8.548828 9.152344-1.086797 1.633796-2.025914 3.045414-2.757812 3.882812-3.027194 3.040394-6.363604 6.578694-8.4375 10.054688-3.495094 5.849088-1.406202 13.413491 2.46289 17.863281.0939.1071.144428.230375.173828.359375.2126-.0102.420669-.02237.605469-.042968 5.54249-.594 8.698404-.083806 10.5625 1.71289 1.154298 1.114598 1.7294 2.69514 1.75 4.802734 2.334896-.504498 4.69189-1.113187 6.242188-1.554687 2.846794-.784698 5.270194-.253618 6.65039 1.455078 1.110198 1.372798 1.3172 3.263635.625 5.207031.5896.0894 1.158063.16546 1.664063.19336 1.563496.0806 3.712983-.572743 4.425781-1.369141.3051-.3388.830628-.3676 1.173828-.0625.3432.308.3705.83213.0625 1.173828-1.186498 1.324398-3.91031 2.023569-5.753906 1.917969-.888798-.0469-1.859527-.2078-2.890625-.375l-.419922-.070312c-3.011094-.5016-6.421016-1.073672-8.320312.453124-1.017898.817-1.564794 2.201048-1.683594 4.214844.453198 1.446098.874702 2.535724 1.875 3.232422.877098.6101 2.911108 1.186384 7.625.458984 6.869886-1.039896 14.15208-4.321611 19.480468-8.783203 5.57769-4.66249 10.124548-11.296613 13.519528-19.716797 2.84-7.013584 2.76322-20.352464-1.88476-28.28125-5.287395-9.01418-16.609986-16.358684-30.285158-19.642578-7.393211-1.785083-14.323163-2.601787-21.089844-2.482422zm-10.978516 8.837891c2.038099.019196 4.071812.302201 6.048829.847656.164699.0459.329394.093732.496093.144532.3449.1013.677282.244328.988282.423828.445399.253699.817278.616188 1.080078 1.054687.2171.3731.338462.79381.351562 1.22461l-.001953.003906c.0081.2791-.026616.557572-.103515.826172-.1545.491499-.40031.949963-.72461 1.351562l-.001953.00586c-1.800998 2.401997-3.603852 4.804233-5.40625 7.207031 2.776997-.716099 5.68429-.785971 8.492187-.201172.2228.0471.433394.139178.621094.267578.1877.1284.348757.292422.472656.482422.1239.1901.208801.4023.25.625.0412.2227.037935.450375-.009765.671875-.0478.2214-.140132.430788-.269531.617188-.1295.186299-.294929.34585-.486328.46875-.1913.122799-.404807.207446-.628907.248046-.2241.0406-.453081.036082-.675781-.011718-3.010497-.6164-6.137972-.322855-8.980469.839843-.2235.0937-.453853.169063-.689453.226563-.422399.1049-.864657.100481-1.285156-.011719-.5562-.1547-1.033338-.511-1.335938-1-.157599-.2561-.265706-.539938-.316406-.835937-.07-.4385-.039409-.887001.087891-1.3125.1639-.5532.426291-1.072804.77539-1.533204l6.34961-8.46875c-2.990597-.820999-6.131685-.937396-9.175781-.341796-.4514.0872-.917629-.008073-1.298829-.263672-.381199-.2556-.644722-.65091-.732421-1.09961-.0877-.448699.006572-.914069.263671-1.292968.2572-.3789.656023-.641316 1.107422-.728516 1.565942-.30555 3.153093-.450477 4.738281-.435547zm-10.589843 8.291016c1.527647.015743 3.058181.21252 4.55664.589843.3085.0784.588247.238144.810547.464844.2223.2266.378219.50986.449219.81836.0711.308598.054225.631442-.046875.93164-.101.3002-.281891.567585-.525391.771485-1.522596 1.275396-3.014658 2.587602-4.472656 3.9375-.396898.366398-.757444.726937-1.089844 1.085937.1467-.0246.284155-.048266.439453-.072266 2.148896-.325798 4.336414-.293696 6.47461.095704.2241.0404.439459.125348.630859.248046.1915.1227.35673.280499.486328.466797.1296.1862.219679.395788.267579.617188.047898.2214.052718.451028.011718.673828-.0411.2227-.1262.4349-.25.625s-.285056.353922-.472656.482422c-.1876.1284-.398194.218425-.621094.265625-.2228.0472-.453734.050964-.677734.009766-1.758796-.3202-3.558576-.346424-5.326172-.078126-.564398.0847-1.222244.218569-1.964844.292969-.830098.1002-1.672222.047197-2.482422-.158203-.427298-.1159-.793537-.391378-1.023437-.767578-.2299-.3763-.306391-.825561-.212891-1.255859.0271-.127.059097-.247382.091797-.363282.299-.995598.794738-1.921958 1.460938-2.722656.581498-.702098 1.216286-1.358697 1.896484-1.966797.561398-.519798 1.132427-1.029764 1.703125-1.539062-2.149796-.0446-4.285601.345986-6.279297 1.146484-.2107.0855-.436464.128153-.664062.126953-.2275-.0012-.45241-.046965-.66211-.134765-.2098-.0877-.400547-.216054-.560547-.376954-.159998-.160898-.287248-.350948-.373046-.560546-.086-.2094-.130107-.433857-.128907-.660157.0012-.226198.048419-.449703.136719-.658203.0883-.2085.217106-.397642.378906-.55664.1619-.159.353655-.285794.564453-.371094 2.387746-.961748 4.928529-1.434442 7.47461-1.408203zm-12.910157 6.996093c.715219-.008632 1.431395.026494 2.144532.105469.2065.0235.411128.063541.611328.119141.3117.0845.609313.213566.882812.384766.3988.246999.717516.603944.916016 1.027343.2163.4772.255881 1.015732.113281 1.519531-.0872.3022-.232834.584532-.427734.832032-.1058.1349-.218997.263112-.341797.382812l-.005859.003906c-.73.7232-1.460054 1.447023-2.189453 2.169922 1.090898-.213499 2.203354-.301365 3.314453-.259765.227399.0095.451903.064856.658203.160156.2064.0953.391022.229985.544922.396484.153999.1665.273462.361819.351562.574219.0782.2125.113116.438063.103516.664063-.0096.225999-.064357.447244-.160156.652343-.0959.2052-.230838.389869-.398438.542969-.1675.1531-.364425.27191-.578125.349609-.2137.0777-.440669.113116-.667969.103516-1.334098-.0549-2.665942.133841-3.93164.556641-.4309.1412-.970154.354819-1.626954.511719-.765799.201199-1.570491.204465-2.33789.009765v.001953l-.021484-.005859c-.2236-.0623-.433835-.1685-.615235-.3125-.1815-.1441-.330806-.322391-.441406-.525391-.1105-.203-.179072-.42645-.201172-.65625-.0222-.2298.002566-.461441.072266-.68164.249599-.7521.634319-1.45376 1.136718-2.06836.419-.513499.868957-.999985 1.347657-1.458984.553099-.5474 1.105703-1.094979 1.658203-1.642578-1.028399.0142-2.052536.140706-3.052735.378906-.109.0259-.220131.042075-.332031.046875l-.015625.001953c-.22.0075-.437631-.027062-.644531-.101562l-.019531-.003907c-.1924-.0723-.370291-.1782-.525391-.3125l-.039063-.029297c-.070099-.065399-.134759-.13719-.193359-.21289l-.03125-.035156-.150391-.248047-.02539-.041016c-.0426-.0922-.078116-.188809-.103516-.287109l-.013672-.042969c-.0261-.1086-.041975-.218578-.046875-.330078l-.001953-.015625c-.0011-.0848.003925-.168053.015625-.251953l.003907-.085938c.017299-.0977.044525-.193709.078124-.287109l.007813-.035156.091797-.185547.054687-.111328.09961-.134766.097656-.130859.191406-.171875.058594-.050782.25-.15039.041016-.023438c.0928-.0419.188309-.075962.287109-.101562l.042969-.015625h.001953c.1369-.0335.275363-.051632.414062-.082032 1.167812-.256062 2.356798-.391862 3.548828-.40625zm31.673829 19.341797c.464898.0074.83645.36076.84375.81836.022 1.711596 1.276939 2.645981 2.023437 3.050781 1.771796.960698 4.103527.94267 5.669922-.048828.3857-.2464.898686-.128934 1.146484.259766.2435.387198.12838.901484-.261718 1.146484-1.069198.676098-2.369968 1.015625-3.697266 1.015625-1.252498 0-2.52644-.303411-3.648438-.912109-1.814196-.9841-2.871484-2.619331-2.896484-4.486329-.0073-.460598.359813-.83635.820313-.84375zm25.708984 7.183594c.4473.0205.840316.351447.853516.810547.0367 1.500396 1.167777 2.297772 2.109375 2.701172 2.340794 1.007598 5.738572.571285 7.417968-.945313.3417-.309398.869182-.282159 1.175782.056641.307998.3417.281251.866383-.060547 1.175781-1.385998 1.251098-3.519354 1.929688-5.65625 1.929688-1.224698 0-2.448852-.224102-3.53125-.6875-1.963896-.843398-3.073641-2.330704-3.119141-4.1875-.0117-.4591.351447-.841816.810547-.853516zm-11.75 1.130859c2.557005-.093255 6.145838 1.920289 4.677734 3.56836-1.806996 2.117896-6.530617.445305-7.041015-1.462891-.1438-.564598.066433-1.153128.832031-1.673828.405337-.276356.941172-.41012 1.53125-.431641zm17.376953 7.408204c.107394-.010593.218475-.001272.328125.033203 4.099292 1.277496 6.831571 2.518471 8.355469 3.792969.3534.296298.400267.818376.105469 1.171874-.1643.1965-.399119.298829-.636719.298829-.1878 0-.379203-.064713-.533203-.195313-1.336198-1.114598-3.954263-2.286671-7.785157-3.480469-.438498-.136398-.682821-.603464-.544921-1.039062.1023-.33.388756-.550255.710937-.582031zm-1.839844 2.36914c.107763-.003251.217869.014841.324219.056641 2.328996.898998 5.64022 2.990516 7.541016 4.757812.335898.311.352015.835977.041015 1.171875-.164198.1774-.387422.265625-.607422.265625-.203898 0-.407059-.073509-.568359-.224609-1.737996-1.616196-4.880663-3.600477-7.005859-4.421875-.4283-.1657-.639856-.647419-.472656-1.074219.123148-.321223.42476-.521495.748046-.53125z"/></svg>