<svg xmlns="http://www.w3.org/2000/svg" fill="none" viewBox="0 0 48 48"><defs><linearGradient id="a" x1="24" x2="24" y1="0" y2="47.825" gradientUnits="userSpaceOnUse"><stop stop-color="#41BCE7"/><stop offset="1" stop-color="#22A6DC"/></linearGradient></defs><path fill="url(#a)" d="M24 48c13.255 0 24-10.745 24-24S37.255 0 24 0 0 10.745 0 24s10.745 24 24 24Z"/><path fill="#fff" d="m35.681 13.81-4.284 21.609s-.6 1.5-2.25.778l-9.89-7.585-3.6-1.734L9.6 24.844s-.928-.328-1.022-1.05c-.094-.722 1.05-1.107 1.05-1.107l24.075-9.44c0-.01 1.978-.881 1.978.562Z"/><path fill="#D2E4F0" d="M18.488 35.175s-.291-.028-.647-1.162c-.357-1.135-2.185-7.135-2.185-7.135l14.54-9.234s.845-.506.807 0c0 0 .15.094-.3.506-.45.422-11.419 10.284-11.419 10.284"/><path fill="#B5CFE4" d="m23.044 31.519-3.91 3.572s-.309.234-.637.084l.75-6.628"/></svg>