<svg xmlns="http://www.w3.org/2000/svg" style="isolation:isolate" viewBox="0 0 24 24"><defs><clipPath id="a"><path d="M0 0h24v24H0z"/></clipPath></defs><g clip-path="url(#a)"><path d="M12 0c6.627 0 12 5.373 12 12s-5.373 12-12 12S0 18.627 0 12 5.373 0 12 0Z" fill="#FFE67E"/><radialGradient id="b" fx=".47823955" fy=".47821836" cx=".47823955" cy=".47821836" r="1" gradientTransform="scale(24)" gradientUnits="userSpaceOnUse"><stop offset="0%" stop-opacity="0" stop-color="#ffd52b"/><stop offset="100%" stop-color="#fab124"/></radialGradient><path d="M12 0c6.627 0 12 5.373 12 12s-5.373 12-12 12S0 18.627 0 12 5.373 0 12 0Z" fill="url(#b)" fill-opacity=".7"/><linearGradient id="c" x1=".52172" y1=".30436" x2=".36956" y2="1.17392" gradientTransform="scale(24)" gradientUnits="userSpaceOnUse"><stop offset="0%" stop-opacity="0" stop-color="#ffd52b"/><stop offset="56.2%" stop-opacity=".562" stop-color="#ff9913"/><stop offset="73.4%" stop-opacity=".734" stop-color="#ff870b"/><stop offset="100%" stop-color="#ff6b00"/></linearGradient><path d="M12 0c6.627 0 12 5.373 12 12s-5.373 12-12 12S0 18.627 0 12 5.373 0 12 0Z" fill="url(#c)" fill-opacity=".3"/><path d="M7.349 9.572c1.111 0 2.012-.922 2.012-2.06 0-1.137-.9-2.06-2.011-2.06-1.111.001-2.011.924-2.011 2.061 0 1.138.9 2.06 2.01 2.06v-.001Zm8 .547c1.111 0 2.012-.922 2.012-2.06 0-1.137-.9-2.059-2.011-2.059-1.111 0-2.011.922-2.011 2.06 0 1.137.9 2.059 2.01 2.059Zm-4.98-5.352c-.124.39-.37-.05-3.023-.932-2.072-.69-3.062-.205-2.939-.594.124-.39.45-1.504 3.303-.556 2.853.949 2.781 1.693 2.658 2.082h.001Zm9.233-.033c.004.384-.671.023-3.13.023-2.244-.023-2.912.36-2.916-.023-.003-.385.09-1.087 2.907-1.112 2.816-.024 3.136.728 3.14 1.112h-.001Zm-1.267 8.873c-.15.095-.238.04-.63-.253-.392-.253-1.18-.805-2.91-.379-.78.215-1.376.55-1.711.883-.35.332-.52.634-.634.853-.11.22-.166.36-.229.437-.05.062-.127.097-.207.094-.15 0-.36-.06-.288-.69.05-.303.187-.774.631-1.277.441-.514 1.163-.996 2.242-1.278.454-.108.991-.187 1.41-.165.43.023.806.09 1.114.213.624.228.962.575 1.148.818.354.519.199.676.064.744Z" fill="#1C1B1A"/><path d="M5.215 16.582c.13-.351.839-2.092 1.234-3.095.159-.405.547-.673.972-.658 1.003.413.383 2.509-.051 3.505 1.777-.644 5.497-1.994 6.154-2.25.217-.094.466-.081.673.035.349.19.609.649.44 1.007-.334.71-1.688 1.303-2.62 1.575l.277.227c.078.059.143.135.19.221.277.556-.01 1.246-.426 1.551l.364.222c.909.724.289 1.3-.133 1.728 1.415 1.109.835 1.579-2.168 2.791-3.002 1.211-3.703.125-4.094-.195-.39-.321-1.065-2.049-1.416-3.331-.351-1.284.429-2.864.604-3.333Z" fill="#FFF"/><linearGradient id="d" x1=".52404087" y1=".35522276" x2=".1369522" y2="1.16634986" gradientTransform="matrix(10.169 0 0 11.172 4.521 12.828)" gradientUnits="userSpaceOnUse"><stop offset="0%" stop-color="#fff"/><stop offset="100%" stop-color="#fdbc3c"/></linearGradient><path d="M5.215 16.582c.13-.351.839-2.092 1.234-3.095.159-.405.547-.673.972-.658 1.003.413.383 2.509-.051 3.505 1.777-.644 5.497-1.994 6.154-2.25.217-.094.466-.081.673.035.349.19.609.649.44 1.007-.334.71-1.688 1.303-2.62 1.575l.277.227c.078.059.143.135.19.221.277.556-.01 1.246-.426 1.551l.364.222c.909.724.289 1.3-.133 1.728 1.415 1.109.835 1.579-2.168 2.791-3.002 1.211-3.703.125-4.094-.195-.39-.321-1.065-2.049-1.416-3.331-.351-1.284.429-2.864.604-3.333Z" fill="url(#d)" fill-opacity=".5"/></g></svg>