<svg xmlns="http://www.w3.org/2000/svg" xmlns:vectornator="http://vectornator.io" xml:space="preserve" stroke-linecap="round" stroke-linejoin="round" stroke-miterlimit="10" clip-rule="evenodd" viewBox="0 0 24 24"><path vectornator:layerName="Untitled" fill-rule="evenodd" d="M8.23 2.41c.07137-.24404.29574-.4113.55-.41h6.43c.2599.00116.4862.17803.55.43l.2.82h4.48c.3093 0 .56.25072.56.56v1.48c-.0055.30537-.2546.55005-.56.55H3.56c-.30542.00005-.55455-.24463-.56-.55V3.81c0-.30928.25072-.56.56-.56H8l.23-.84Zm-3.92 4.4h15.42v13.8c-.0055.7693-.6307 1.39-1.4 1.39H5.72c-.77298.005-1.40395-.617-1.41-1.39V6.81ZM7.5 10c.04093-.33063.32185-.57891.655-.57891s.61407.24828.655.57891v8.85c-.04093.3306-.32185.5789-.655.5789s-.61407-.2483-.655-.5789V10Zm3.89 0c.0409-.33063.3218-.57891.655-.57891.3332 0 .6141.24828.655.57891v8.85c-.0409.3306-.3218.5789-.655.5789-.3332 0-.6141-.2483-.655-.5789V10Zm4.5-.65c-.3606-.00004-.6545.2894-.66.65v8.85c0 .3645.2955.66.66.66.3645 0 .66-.2955.66-.66V10c.0088-.18034-.0569-.35636-.1817-.48683-.1248-.13047-.2978-.20393-.4783-.20317v.04Z"/></svg>