<svg xmlns="http://www.w3.org/2000/svg" style="isolation:isolate" viewBox="0 0 24 24"><defs><clipPath id="a"><path d="M0 0h24v24H0z"/></clipPath></defs><g clip-path="url(#a)"><path d="M12 0c6.626 0 12 5.373 12 12s-5.374 12-12 12S0 18.627 0 12 5.374 0 12 0Z" fill="#FFE67E"/><radialGradient id="b" fx=".37790693" fy=".41302482" cx=".37790693" cy=".41302482" r="1" gradientTransform="scale(24)" gradientUnits="userSpaceOnUse"><stop offset="0%" stop-opacity="0" stop-color="#ffc42b"/><stop offset="100%" stop-color="#ffaa2b"/></radialGradient><path d="M12 0c6.626 0 12 5.373 12 12s-5.374 12-12 12S0 18.627 0 12 5.374 0 12 0Z" fill="url(#b)" fill-opacity=".6"/><linearGradient id="c" x1=".52" y1="1.18" x2=".52" y2="0" gradientTransform="scale(24)" gradientUnits="userSpaceOnUse"><stop offset="0%" stop-color="#fd0606"/><stop offset="100%" stop-opacity="0" stop-color="#fc5b00"/></linearGradient><path d="M12 0c6.626 0 12 5.373 12 12s-5.374 12-12 12S0 18.627 0 12 5.374 0 12 0Z" fill="url(#c)" fill-opacity=".7"/><path d="M15.269 15.537c-.154.049-.22-.019-.505-.361-.294-.31-.875-.966-2.508-.983-.743.011-1.347.17-1.718.383-.385.21-.603.435-.751.6-.147.166-.228.275-.3.328-.059.043-.135.056-.205.035-.134-.033-.308-.132-.106-.664.112-.252.337-.63.843-.969.505-.348 1.253-.604 2.276-.608.428.008.924.06 1.292.173.378.116.698.258.946.435.505.339.73.717.842.97.202.53.03.632-.106.66v.001Zm-8.102-3.395c1.136 0 2.057-.921 2.057-2.057s-.921-2.057-2.057-2.057-2.057.921-2.057 2.057.921 2.057 2.057 2.057Z" fill="#1C1B1A"/><path d="M10.28 9.335c-.13.328-.43.264-2.721-.653-2.292-.916-2.553-1.076-2.422-1.404.132-.328.346-.55 2.81.434 2.463.986 2.464 1.295 2.333 1.623Zm6.553 2.807c-1.136 0-2.057-.921-2.057-2.057s.921-2.057 2.057-2.057 2.057.921 2.057 2.057-.921 2.057-2.057 2.057Z" fill="#1C1B1A"/><path d="M13.719 9.335c.132.328.43.264 2.722-.653 2.292-.916 2.552-1.076 2.421-1.404-.13-.328-.345-.55-2.809.434-2.464.986-2.465 1.295-2.334 1.623Z" fill="#1C1B1A"/></g></svg>