<svg xmlns="http://www.w3.org/2000/svg" style="isolation:isolate" viewBox="0 0 24 24"><defs><clipPath id="a"><path d="M0 0h24v24H0z"/></clipPath></defs><g clip-path="url(#a)"><mask id="b" x="-200%" y="-200%" width="400%" height="400%"><rect x="-200%" y="-200%" width="400%" height="400%" fill="#fff"/><path d="M6 21.002V4.998c0-.53.211-1.039.586-1.414S7.47 2.998 8 2.998h8c.53 0 1.039.211 1.414.586S18 4.468 18 4.998v16h-.007l-5.492-3.176-.501-.289-.5.289-5.5 3.18Z"/></mask><path d="M6 21.002V4.998c0-.53.211-1.039.586-1.414S7.47 2.998 8 2.998h8c.53 0 1.039.211 1.414.586S18 4.468 18 4.998v16h-.007l-5.492-3.176-.501-.289-.5.289-5.5 3.18Z" fill="none"/><path d="M6 21.002V4.998c0-.53.211-1.039.586-1.414S7.47 2.998 8 2.998h8c.53 0 1.039.211 1.414.586S18 4.468 18 4.998v16h-.007l-5.492-3.176-.501-.289-.5.289-5.5 3.18Z" fill="none" mask="url(#b)" vector-effect="non-scaling-stroke" stroke-width="4" stroke="#768787"/></g></svg>