<?xml version="1.0" encoding="UTF-8" standalone="no"?><!-- Generator: Gravit.io --><svg xmlns="http://www.w3.org/2000/svg" xmlns:xlink="http://www.w3.org/1999/xlink" style="isolation:isolate" viewBox="0 0 24 24" width="24pt" height="24pt"><defs><clipPath id="_clipPath_oV4wXPYiSTOzvkdpTwOQlJCOAW2aCwoM"><rect width="24" height="24"/></clipPath></defs><g clip-path="url(#_clipPath_oV4wXPYiSTOzvkdpTwOQlJCOAW2aCwoM)"><path d=" M 21.453 4.835 L 19.076 2.458 C 18.694 2.078 18.078 2.078 17.696 2.458 L 12.238 7.917 C 12.055 8.101 11.953 8.351 11.954 8.611 L 11.954 10.979 C 11.954 11.239 12.057 11.487 12.241 11.671 C 12.424 11.854 12.673 11.957 12.933 11.957 L 15.3 11.957 C 15.56 11.958 15.81 11.856 15.994 11.673 L 21.453 6.215 C 21.833 5.833 21.833 5.217 21.453 4.835 Z  M 14.889 10 L 13.911 10 L 13.911 9.022 L 18.391 4.542 L 19.369 5.52 L 14.89 10 L 14.889 10 Z  M 18.802 11.957 C 18.543 11.957 18.294 12.06 18.11 12.243 C 17.927 12.427 17.824 12.676 17.824 12.935 C 17.824 14.751 17.103 16.493 15.818 17.777 C 14.534 19.062 12.792 19.783 10.976 19.783 L 5.508 19.783 L 6.134 19.166 C 6.319 18.982 6.423 18.732 6.423 18.472 C 6.423 18.211 6.319 17.961 6.134 17.777 C 4.175 15.819 3.588 12.873 4.648 10.314 C 5.708 7.755 8.206 6.086 10.976 6.087 C 11.325 6.087 11.648 5.901 11.823 5.598 C 11.998 5.295 11.998 4.923 11.823 4.62 C 11.648 4.317 11.325 4.131 10.976 4.131 C 7.598 4.143 4.524 6.086 3.065 9.134 C 1.606 12.181 2.02 15.794 4.13 18.433 L 2.457 20.066 C 2.179 20.347 2.098 20.768 2.251 21.133 C 2.401 21.498 2.756 21.737 3.151 21.739 L 10.977 21.739 C 13.312 21.739 15.552 20.812 17.203 19.161 C 18.854 17.51 19.781 15.27 19.781 12.935 C 19.781 12.676 19.678 12.427 19.495 12.243 C 19.311 12.06 19.062 11.957 18.803 11.957 L 18.802 11.957 Z " fill="rgb(118,135,135)"/></g></svg>