<svg xmlns="http://www.w3.org/2000/svg" style="isolation:isolate" viewBox="0 0 24 24"><defs><clipPath id="a"><path d="M0 0h24v24H0z"/></clipPath></defs><g clip-path="url(#a)"><path d="m21.453 4.835-2.377-2.377c-.382-.38-.998-.38-1.38 0l-5.458 5.459c-.183.184-.285.434-.284.694v2.368c0 .26.103.508.287.692.183.183.432.286.692.286H15.3c.26.001.51-.101.694-.284l5.459-5.458c.38-.382.38-.998 0-1.38ZM14.889 10h-.978v-.978l4.48-4.48.978.978L14.89 10h-.001Zm3.913 1.957c-.259 0-.508.103-.692.286-.183.184-.286.433-.286.692 0 1.816-.721 3.558-2.006 4.842-1.284 1.285-3.026 2.006-4.842 2.006H5.508l.626-.617c.185-.184.289-.434.289-.694 0-.261-.104-.511-.289-.695-1.959-1.958-2.546-4.904-1.486-7.463 1.06-2.559 3.558-4.228 6.328-4.227.349 0 .672-.186.847-.489.175-.303.175-.675 0-.978-.175-.303-.498-.489-.847-.489-3.378.012-6.452 1.955-7.911 5.003-1.459 3.047-1.045 6.66 1.065 9.299l-1.673 1.633c-.278.281-.359.702-.206 1.067.15.365.505.604.9.606h7.826c2.335 0 4.575-.927 6.226-2.578 1.651-1.651 2.578-3.891 2.578-6.226 0-.259-.103-.508-.286-.692-.184-.183-.433-.286-.692-.286h-.001Z" fill="none" vector-effect="non-scaling-stroke" stroke="#768787"/></g></svg>