<svg xmlns="http://www.w3.org/2000/svg" style="isolation:isolate" viewBox="0 0 64 64"><defs><clipPath id="a"><path d="M0 0h64v64H0z"/></clipPath></defs><g clip-path="url(#a)"><mask id="b" x="-200%" y="-200%" width="400%" height="400%"><rect x="-200%" y="-200%" width="400%" height="400%" fill="#fff"/><path d="M53.79 33.1c.054-.128.054-.272 0-.4-.96-1.81-8.5-15.53-21.79-15.86-13.29-.33-21 13.77-22.08 15.81-.086.149-.086.331 0 .48C11.1 35.06 19.35 48.05 29.68 49c11.39 1 20.63-7 24.11-15.9Z"/></mask><path d="M53.79 33.1c.054-.128.054-.272 0-.4-.96-1.81-8.5-15.53-21.79-15.86-13.29-.33-21 13.77-22.08 15.81-.086.149-.086.331 0 .48C11.1 35.06 19.35 48.05 29.68 49c11.39 1 20.63-7 24.11-15.9Z" fill="none"/><path d="M53.79 33.1c.054-.128.054-.272 0-.4-.96-1.81-8.5-15.53-21.79-15.86-13.29-.33-21 13.77-22.08 15.81-.086.149-.086.331 0 .48C11.1 35.06 19.35 48.05 29.68 49c11.39 1 20.63-7 24.11-15.9Z" fill="none" mask="url(#b)" vector-effect="non-scaling-stroke" stroke-width="7" stroke="#000" stroke-linejoin="round" stroke-linecap="round"/><circle vector-effect="non-scaling-stroke" cx="31.7" cy="32.76" r="6.91" fill="none" stroke-width="3.5" stroke="#000" stroke-linejoin="round" stroke-linecap="round"/></g></svg>