<?xml version="1.0" encoding="UTF-8" standalone="no"?><!-- Generator: Gravit.io --><svg xmlns="http://www.w3.org/2000/svg" xmlns:xlink="http://www.w3.org/1999/xlink" style="isolation:isolate" viewBox="0 0 64 64" width="64pt" height="64pt"><defs><clipPath id="_clipPath_85StexV6PkOioMvnrmQe8zQKxEEdpoN5"><rect width="64" height="64"/></clipPath></defs><g clip-path="url(#_clipPath_85StexV6PkOioMvnrmQe8zQKxEEdpoN5)"><clipPath id="_clipPath_Zht4i9Ky39OQg9s9Hqe4CON4xw9PSyni"><path d=" M 0 0 L 64 0 L 64 64 L 0 64 L 0 0 Z " fill="rgb(255,255,255)"/></clipPath><g clip-path="url(#_clipPath_Zht4i9Ky39OQg9s9Hqe4CON4xw9PSyni)"><g><path d=" M 53.79 33.1 C 53.844 32.972 53.844 32.828 53.79 32.7 C 52.83 30.89 45.29 17.17 32 16.84 C 18.71 16.51 11 30.61 9.92 32.65 C 9.834 32.799 9.834 32.981 9.92 33.13 C 11.1 35.06 19.35 48.05 29.68 49 C 41.07 50 50.31 42 53.79 33.1 Z " fill="none"/><clipPath id="_clipPath_qbVZ4HL2F22ceKDFP9cR5ZmtTnog2ETN"><path d=" M -128 -128 L 128 -128 L 128 128 L -128 128 L -128 -128 Z  M 53.79 33.1 C 53.844 32.972 53.844 32.828 53.79 32.7 C 52.83 30.89 45.29 17.17 32 16.84 C 18.71 16.51 11 30.61 9.92 32.65 C 9.834 32.799 9.834 32.981 9.92 33.13 C 11.1 35.06 19.35 48.05 29.68 49 C 41.07 50 50.31 42 53.79 33.1 Z " fill-rule="evenodd" fill="rgb(255,255,255)"/></clipPath><g clip-path="url(#_clipPath_qbVZ4HL2F22ceKDFP9cR5ZmtTnog2ETN)"><mask id="_mask_3uuzuEWiIHaIHAvwLkAzfugMP2PRsZOf" x="-200%" y="-200%" width="400%" height="400%"><rect x="-200%" y="-200%" width="400%" height="400%" style="fill:white;"/><path d=" M 53.79 33.1 C 53.844 32.972 53.844 32.828 53.79 32.7 C 52.83 30.89 45.29 17.17 32 16.84 C 18.71 16.51 11 30.61 9.92 32.65 C 9.834 32.799 9.834 32.981 9.92 33.13 C 11.1 35.06 19.35 48.05 29.68 49 C 41.07 50 50.31 42 53.79 33.1 Z " fill="black" stroke="none"/></mask><path d=" M 53.79 33.1 C 53.844 32.972 53.844 32.828 53.79 32.7 C 52.83 30.89 45.29 17.17 32 16.84 C 18.71 16.51 11 30.61 9.92 32.65 C 9.834 32.799 9.834 32.981 9.92 33.13 C 11.1 35.06 19.35 48.05 29.68 49 C 41.07 50 50.31 42 53.79 33.1 Z " fill="none"/><path d=" M 53.79 33.1 C 53.844 32.972 53.844 32.828 53.79 32.7 C 52.83 30.89 45.29 17.17 32 16.84 C 18.71 16.51 11 30.61 9.92 32.65 C 9.834 32.799 9.834 32.981 9.92 33.13 C 11.1 35.06 19.35 48.05 29.68 49 C 41.07 50 50.31 42 53.79 33.1 Z " fill="none" mask="url(#_mask_3uuzuEWiIHaIHAvwLkAzfugMP2PRsZOf)" vector-effect="non-scaling-stroke" stroke-width="7" stroke="rgb(0,0,0)" stroke-linejoin="round" stroke-linecap="round" stroke-miterlimit="4"/></g><circle vector-effect="non-scaling-stroke" cx="31.7" cy="32.76" r="6.91" fill="none" stroke-width="3.5" stroke="rgb(0,0,0)" stroke-linejoin="round" stroke-linecap="round" stroke-miterlimit="4"/></g></g></g></svg>